<svg xmlns="http://www.w3.org/2000/svg" viewBox="0 0 1029.47 335.8"><defs><style>.cls-1{fill:#071b44;}.cls-2{fill:#001c44;}.cls-3{fill:#e5190d;}</style></defs><title>banner</title><g id="Capa_2" data-name="Capa 2"><g id="Capa_1-2" data-name="Capa 1"><path class="cls-1" d="M0,226V206.4c2.52,1.35,5.05,2.67,7.57,4V74.64C5.05,73.25,2.52,71.83,0,70.37V50.49A441.09,441.09,0,0,0,86,89.08v33.47q-6.87-2.16-13.76-4.58v-7.63c-2.27-2.78-5.86-5.59-10.77-8.56S50.23,95.63,42.55,92v39.63Q57.37,138,72.19,143.08V131.51Q79.08,133.91,86,136v42.42q-6.87-2-13.76-4.34V162.54q-14.82-5-29.64-11.3v75a88.8,88.8,0,0,0,19.09,5.15c4.83.6,8.35.21,10.55-1.06V209.93q6.89,2.23,13.76,4.2v46A417.53,417.53,0,0,1,0,226"/><path class="cls-1" d="M120.46,267.91V249q3.84.72,7.68,1.37,5.12-64.53,10.24-128.79-3.84-.7-7.68-1.49V101Q149.84,105,169,107.38c.36,4.66.92,9.39,1.71,14.17s1.81,9.75,3.09,14.89q7,29,14,57.63l14.82-47.53q.54-1.51,1.5-4.44,6.6-20.41,8.31-31.56,17.18.55,34.34,0V129c-2.49.09-5,.16-7.46.22q3.41,63.06,6.82,125.81,3.69-.28,7.36-.6v18.14c-15.5,1.44-31,2.29-46.49,2.45V256.58q3.83,0,7.67-.08-2.28-46.59-4.58-93.33A375.19,375.19,0,0,0,196.34,213q-5.82,27.84-9.66,61.8-7.56-.24-15.14-.71c-1.7-18.57-4.34-37.35-7.89-56.45s-8-38.82-13.44-59.31q-3.19,47.12-6.4,94.38,3.84.51,7.68.94v18.74q-15.51-1.67-31-4.47"/><path class="cls-1" d="M290.19,268.07V250.15c2.52-.36,5.05-.74,7.57-1.13V125.13c-2.52.28-5.05.55-7.57.81V107.79c17.81-1.72,35.62-4.11,53.43-7,14.43-2.35,25.22-1.72,32.36,2.21s10.72,11.14,10.72,21.82a36.34,36.34,0,0,1-7.36,22.68c-4.9,6.45-11.91,11.36-21,14.59,11.66-.75,20.49,1.73,26.5,7.6s9,15,9,27.51q0,24.28-13.33,40c-8.88,10.46-22.11,17.89-39.67,21.63-16.88,3.58-33.77,6.69-50.65,9.21M332.1,120.49v38.76q.52-.09,1.71-.18c.78-.06,1.27-.1,1.49-.14,6.47-1.12,11.27-3.63,14.4-7.44s4.69-9,4.69-15.62-1.55-11.09-4.64-13.73-7.8-3.44-14.13-2.43q-.54.09-1.71.39a17.7,17.7,0,0,1-1.81.39m0,56.44v51.89q0,7.94,2.35,10.48c1.56,1.69,4.19,2.16,7.89,1.39,5.68-1.18,9.72-4.64,12.1-10.29S358,215.7,358,203.27c0-11.31-2-18.92-5.92-22.9s-10.61-5.08-20-3.44"/><path class="cls-1" d="M418.54,239.62V222.45q3.84-1,7.68-2.1,17.11-72.71,34.23-144.09,15.51-3.77,31-7.65,17,62.24,34,122.86l7.68-2.27v16.49c-16.74,5-33.49,10.15-50.23,15.19V204.09l7.47-2.21q-2.51-9.45-5-18.95-19,5.49-38.07,10.8-2.71,11.11-5.43,22.25l7.67-2.18v17q-15.51,4.52-31,8.83m33.38-65.88q14.44-3.94,28.9-8Q473.73,138,466.64,110q-7.36,31.71-14.72,63.7"/><path class="cls-1" d="M553.51,180.29c.28-.08.76-.18,1.43-.31s1.23-.25,1.66-.37q8.21-2.37,11.41-7t3.2-17.75V65.38l-8.32,2V50.89c17-4.09,33.91-8,50.87-11.68V55.43l-7.68,1.72V148.3c0,12.5-3.13,23-9.39,31.56s-15.21,14.56-26.87,18a45.54,45.54,0,0,1-7.62,1.57,36.79,36.79,0,0,1-7.42,0q-.63-9.57-1.27-19.15"/><path class="cls-1" d="M632.16,177.66V161.75q3.84-1,7.68-1.89Q657,92.71,674.07,27.67c10.35-1.69,20.69-3.22,31-4.53q17,59.33,34,117.82c2.56-.32,5.12-.64,7.68-.93v15.24c-16.74,2-33.48,4.72-50.23,7.91V147.65q3.73-.69,7.47-1.34l-5-18q-19,3.31-38.07,7.46-2.73,10.19-5.44,20.41c2.56-.59,5.12-1.16,7.68-1.73v15.73q-15.53,3.53-31,7.49m33.38-60.21q14.44-3,28.9-5.48-7.1-26.23-14.18-52.63-7.37,28.84-14.72,58.11"/><path class="cls-1" d="M774.81,152.47V137.39q3.78-.27,7.57-.48V32.76q-3.79.06-7.57.18V17.67q17-.42,34,.2c12,.45,21.56,1.83,28.64,3.72a62.9,62.9,0,0,1,18.29,7.93,61.83,61.83,0,0,1,21.7,25.65q7.62,16.17,7.62,36.25c0,13.38-2.52,24.49-7.57,33.56a44.9,44.9,0,0,1-21.75,19.74,64,64,0,0,1-18.29,4.75c-7.08.89-16.62,1.23-28.64,1.41-11.34.17-22.68.72-34,1.59M817.35,33.08V136H818c9.82.09,17.1-3.79,21.87-11.9S847,103.43,847,86.21s-2.38-30.22-7.14-39S827.81,33.6,818,33.11l-.64,0"/><path class="cls-1" d="M903.9,159V144.72q3.84.78,7.68,1.63Q928.7,93.48,945.81,43.77q15.53,5.59,31,12.57,17,62.82,34,125.82,3.84,2,7.68,4v13.64a425.94,425.94,0,0,0-50.23-22.58V163.3q3.74,1.41,7.47,2.91l-5-18.93q-19-7.49-38.07-12.88-2.73,7.83-5.44,15.75,3.84,1,7.68,2.1v14.14q-15.53-4.32-31-7.35m33.38-38.88q14.46,4.4,28.9,10Q959.09,102.76,952,75.38q-7.37,22.08-14.72,44.78"/><path class="cls-2" d="M219.33,64.88V58.23h3V12.12h-3V5.38h20v6.74h-3V58.23a20.05,20.05,0,0,0,6.46-1,15.47,15.47,0,0,0,5.23-3l.64-5.67h5.42l-1.58,18.34H247.1l.09-2Z"/><path class="cls-2" d="M267,64.89V58.23H270L283.73,5.38h12.42l13.6,52.85h3.08v6.66H292.74V58.23h3l-2-8.1H278.49l-2.18,8.1h3.07v6.66Zm13.35-22.1h11.56l-5.67-23.5Z"/><path class="cls-1" d="M429.84,290.68l17.79-5.54a23.54,23.54,0,0,1,7.45-1.15,16.11,16.11,0,0,1,6.37,1.37,14.35,14.35,0,0,1,4.9,3.71,16.25,16.25,0,0,1,3.12,5.82l0,.13a15.54,15.54,0,0,1,.65,7.11,14.42,14.42,0,0,1-2.38,6,18,18,0,0,1-4.83,4.72,25.17,25.17,0,0,1-6.73,3.19l-9,2.8,4.52,14.5-7.86,2.45Zm24.41,18.14a11,11,0,0,0,6.44-4.49,7.7,7.7,0,0,0,.81-6.65l0-.12a7.49,7.49,0,0,0-4.53-5.23,11.89,11.89,0,0,0-7.75.18l-9.25,2.88,5.08,16.3Z"/><path class="cls-1" d="M515.1,314.77a25.26,25.26,0,0,1-10.12,1,23.52,23.52,0,0,1-16-8.73,24.36,24.36,0,0,1-4.46-8.5l0-.13a24.71,24.71,0,0,1-1-9.54,24,24,0,0,1,2.68-8.91,24.58,24.58,0,0,1,15-12.07,25.24,25.24,0,0,1,10.12-1,23.69,23.69,0,0,1,8.94,2.78,24,24,0,0,1,7.07,5.94,24.43,24.43,0,0,1,4.45,8.5l0,.13a24.33,24.33,0,0,1,1,9.54,23.66,23.66,0,0,1-2.68,8.91,24.59,24.59,0,0,1-6,7.33,24.84,24.84,0,0,1-9,4.75M513,307.42a15.36,15.36,0,0,0,5.77-3.1,15.2,15.2,0,0,0,3.77-4.87,16.51,16.51,0,0,0,1.6-6,17.77,17.77,0,0,0-.73-6.55l0-.13a18.08,18.08,0,0,0-3-5.9,16.36,16.36,0,0,0-4.69-4.16,16,16,0,0,0-5.9-2,15.64,15.64,0,0,0-16.11,8.53,16.77,16.77,0,0,0-1.6,6,17.75,17.75,0,0,0,.74,6.54l0,.13a18,18,0,0,0,3,5.9,15.94,15.94,0,0,0,4.69,4.16,15.76,15.76,0,0,0,5.9,2,15.24,15.24,0,0,0,6.56-.56"/><polygon class="cls-1" points="541.67 256.79 549.59 254.54 560.45 292.79 584.35 286 586.4 293.21 554.58 302.24 541.67 256.79"/><path class="cls-1" d="M605.43,238.9l7.46-1.9,31.91,41-8.5,2.17-7.46-9.87-21.65,5.53-1.89,12.25-8.24,2.11Zm18.64,25L611.48,247.6l-3.17,20.31Z"/><path class="cls-1" d="M710.21,260.91a25,25,0,0,1-5.84,5.47,18.56,18.56,0,0,1-7.54,2.87,18.86,18.86,0,0,1-6.18,0,14.23,14.23,0,0,1-5.23-1.94,12.68,12.68,0,0,1-5.9-9l0-.13a12.23,12.23,0,0,1,1.33-8.17,18.7,18.7,0,0,1,6.53-6.47,20.21,20.21,0,0,1-3.7-4.4,13.2,13.2,0,0,1-1.71-4.72l0-.14a11.32,11.32,0,0,1,2.3-8.77,13.44,13.44,0,0,1,3.8-3.23,15.46,15.46,0,0,1,5.44-1.85,14.17,14.17,0,0,1,5.21.06,11.94,11.94,0,0,1,4.28,1.78,10.87,10.87,0,0,1,3.1,3.2,11,11,0,0,1,1.6,4.26l0,.13a10.47,10.47,0,0,1-1.61,7.95,19.93,19.93,0,0,1-6.73,5.81l9.29,6.87c.67-1.47,1.32-3,1.92-4.68s1.15-3.35,1.65-5.11l6.72,2.28q-1,3-2.1,6a58.72,58.72,0,0,1-2.55,5.7l8.52,6.31-5.38,5.29Zm-13.59,1.4a10.51,10.51,0,0,0,4.43-1.79,16.58,16.58,0,0,0,3.73-3.67l-12.08-9a11.12,11.12,0,0,0-4.19,4.18,7.27,7.27,0,0,0-.79,4.53l0,.14a6.25,6.25,0,0,0,3,4.55,8.39,8.39,0,0,0,5.9,1m-2.31-22.39a17,17,0,0,0,5-3.9,5.54,5.54,0,0,0,1.2-4.53l0-.13a5.18,5.18,0,0,0-2.1-3.57,6,6,0,0,0-7.86,1.35,5.69,5.69,0,0,0-.86,4.27l0,.14a7.12,7.12,0,0,0,1.32,3.14,19,19,0,0,0,3.32,3.23"/><polygon class="cls-1" points="771.7 218.31 756.79 219.83 756.01 212.17 794.16 208.29 794.94 215.95 780.03 217.46 784.03 256.82 775.71 257.67 771.7 218.31"/><polygon class="cls-1" points="812.83 207.04 847.8 206.62 847.89 214.11 821.16 214.43 821.3 226.58 845 226.3 845.08 233.79 821.39 234.07 821.54 246.69 848.61 246.38 848.7 253.87 813.39 254.29 812.83 207.04"/><path class="cls-1" d="M873.85,257.43a17.34,17.34,0,0,1-8.72-3.44,20.17,20.17,0,0,1-5.19-6.21l6.19-4.79a19.15,19.15,0,0,0,3.68,4.64,9.23,9.23,0,0,0,5,2.16,7,7,0,0,0,5.7-1.48c1.56-1.3,2.57-3.52,3-6.64L887.8,211l8.42,1.18-4.33,30.89a21,21,0,0,1-2.16,7.12,14,14,0,0,1-3.93,4.7,13.5,13.5,0,0,1-5.38,2.42,19.13,19.13,0,0,1-6.57.13"/><path class="cls-1" d="M928,268.26a25.5,25.5,0,0,1-9.19-4.36,23.72,23.72,0,0,1-6.21-7,24,24,0,0,1-3-8.75,24.5,24.5,0,0,1,.59-9.57l0-.13a24.68,24.68,0,0,1,4.12-8.66,23.91,23.91,0,0,1,6.91-6.24A24.59,24.59,0,0,1,940.32,221a25.33,25.33,0,0,1,9.19,4.36,23.72,23.72,0,0,1,6.21,7,24,24,0,0,1,3,8.74,24.54,24.54,0,0,1-.58,9.58l0,.13a24.49,24.49,0,0,1-4.11,8.66,24,24,0,0,1-6.91,6.24A24.72,24.72,0,0,1,928,268.26m2-7.36a15.51,15.51,0,0,0,6.54.33A15.17,15.17,0,0,0,942.3,259a16.7,16.7,0,0,0,4.48-4.32,17.7,17.7,0,0,0,2.76-6l0-.13a18.06,18.06,0,0,0,.48-6.6,16.21,16.21,0,0,0-1.86-6,16,16,0,0,0-4-4.77,15.65,15.65,0,0,0-18.2-1,16.54,16.54,0,0,0-4.48,4.32,17.78,17.78,0,0,0-2.75,6l0,.13a18.06,18.06,0,0,0-.48,6.6,16,16,0,0,0,1.85,6,15.83,15.83,0,0,0,4,4.76A15.18,15.18,0,0,0,930,260.9"/><path class="cls-3" d="M10.93,218.74V199.11c2.52,1.36,5.05,2.67,7.57,4V67.35C16,66,13.45,64.54,10.93,63.09V43.21A441.63,441.63,0,0,0,96.88,81.79v33.47Q90,113.1,83.12,110.68v-7.63c-2.27-2.78-5.86-5.59-10.77-8.55s-11.19-6.16-18.87-9.8v39.63q14.82,6.38,29.64,11.47V124.22q6.88,2.4,13.76,4.53v42.42q-6.87-2.05-13.76-4.35V155.25q-14.82-5-29.64-11.29v75a89.53,89.53,0,0,0,19.09,5.16c4.83.6,8.35.2,10.55-1.07V202.65q6.88,2.22,13.76,4.19v46a416.41,416.41,0,0,1-85.95-34.07"/><path class="cls-3" d="M131.39,260.62V241.7q3.84.72,7.68,1.36,5.12-64.53,10.23-128.78c-2.55-.48-5.11-1-7.67-1.49V93.68q19.14,4.06,38.28,6.41c.36,4.67.92,9.39,1.71,14.18s1.81,9.75,3.09,14.89q7,29,14,57.62l14.82-47.53c.36-1,.86-2.48,1.5-4.43q6.6-20.43,8.31-31.56,17.17.54,34.34,0V121.7c-2.49.08-5,.15-7.46.21Q253.6,185,257,247.72c2.45-.18,4.91-.38,7.36-.6v18.14c-15.5,1.45-31,2.3-46.5,2.45V249.3q3.84,0,7.68-.09-2.3-46.59-4.58-93.33a377.08,377.08,0,0,0-13.71,49.82q-5.81,27.84-9.65,61.8-7.56-.22-15.14-.7-2.57-27.86-7.89-56.45c-3.56-19.1-8-38.82-13.44-59.32q-3.19,47.11-6.4,94.39,3.84.5,7.68.93v18.74q-15.51-1.66-31-4.47"/><path class="cls-3" d="M301.12,260.79V242.86c2.52-.36,5.05-.74,7.57-1.12V117.84c-2.52.29-5.05.56-7.57.82V100.5c17.81-1.72,35.62-4.1,53.43-7,14.43-2.35,25.22-1.71,32.36,2.21s10.72,11.14,10.72,21.83a36.38,36.38,0,0,1-7.36,22.68c-4.91,6.44-11.91,11.35-21,14.58,11.66-.74,20.49,1.73,26.5,7.61s9,15,9,27.5q0,24.3-13.33,40c-8.89,10.46-22.11,17.89-39.67,21.63-16.88,3.58-33.77,6.7-50.65,9.22M343,113.21V152c.35-.06.92-.12,1.7-.17s1.28-.11,1.5-.15c6.47-1.11,11.26-3.62,14.39-7.43s4.7-9,4.7-15.62-1.55-11.09-4.64-13.74-7.8-3.44-14.13-2.43q-.54.09-1.71.39c-.78.2-1.38.33-1.81.4m0,56.43v51.9q0,7.94,2.34,10.47c1.57,1.69,4.2,2.17,7.9,1.4,5.68-1.19,9.72-4.64,12.1-10.3s3.57-14.69,3.57-27.12c0-11.31-2-18.93-5.92-22.91s-10.61-5.08-20-3.44"/><path class="cls-3" d="M429.47,232.33V215.16l7.68-2.09Q454.27,140.35,471.38,69q15.51-3.78,31-7.66,17,62.24,34,122.86l7.68-2.27V198.4c-16.74,5-33.49,10.15-50.23,15.19V196.8l7.47-2.2q-2.5-9.47-5-19-19,5.49-38.07,10.81-2.72,11.1-5.43,22.24l7.67-2.18v17q-15.51,4.53-31,8.83m33.38-65.88q14.44-3.94,28.9-8-7.1-27.69-14.18-55.68-7.36,31.71-14.72,63.69"/><path class="cls-3" d="M564.43,173a13.76,13.76,0,0,1,1.44-.31c.68-.13,1.23-.26,1.66-.38q8.21-2.37,11.41-7t3.2-17.75V58.09l-8.32,2V43.61c17-4.09,33.91-8,50.87-11.69V48.15c-2.56.56-5.12,1.14-7.68,1.72V141c0,12.5-3.13,23-9.39,31.56s-15.21,14.57-26.87,18a44.5,44.5,0,0,1-7.62,1.56,36.07,36.07,0,0,1-7.42,0q-.63-9.57-1.28-19.14"/><path class="cls-3" d="M643.09,170.38V154.46l7.68-1.88Q667.89,85.41,685,20.38q15.53-2.53,31-4.53,17,59.33,34,117.83,3.84-.5,7.68-.94V148c-16.74,2-33.48,4.73-50.23,7.92V140.36c2.49-.46,5-.9,7.47-1.34l-5-18q-19,3.33-38.07,7.47-2.73,10.17-5.44,20.4c2.56-.58,5.12-1.16,7.67-1.72v15.73q-15.51,3.51-31,7.49m33.38-60.21q14.44-3,28.9-5.49-7.1-26.22-14.18-52.63-7.37,28.85-14.72,58.12"/><path class="cls-3" d="M785.73,145.18V130.11c2.53-.18,5-.34,7.58-.49V25.47c-2.53,0-5,.1-7.58.18V10.38q17-.41,34,.2c12,.45,21.56,1.83,28.64,3.72a63.17,63.17,0,0,1,18.29,7.93,61.79,61.79,0,0,1,21.7,25.66Q896,64,896,84.13c0,13.38-2.52,24.5-7.57,33.57a44.93,44.93,0,0,1-21.75,19.73,64,64,0,0,1-18.29,4.75c-7.08.89-16.62,1.23-28.64,1.41q-17,.27-34,1.59M828.28,25.8V128.71h.64c9.82.08,17.1-3.8,21.87-11.91s7.14-20.67,7.14-37.89-2.38-30.22-7.14-39-12-13.6-21.87-14.09l-.64,0"/><path class="cls-3" d="M914.83,151.75V137.44c2.56.51,5.12,1.06,7.68,1.63Q939.63,86.2,956.74,36.48q15.53,5.6,31,12.58,17,62.81,34,125.81c2.56,1.31,5.12,2.64,7.68,4v13.64A424.22,424.22,0,0,0,979.24,170V156q3.74,1.41,7.47,2.91l-5-18.93q-19-7.49-38.07-12.88-2.73,7.85-5.44,15.76,3.84,1,7.67,2.1V159.1q-15.51-4.32-31-7.35m33.38-38.87q14.44,4.4,28.9,10Q970,95.47,962.93,68.09q-7.36,22.09-14.72,44.79"/><path class="cls-3" d="M224.71,59.51V52.85h3V6.74h-3V0h20V6.74h-3V52.85a19.78,19.78,0,0,0,6.46-1,15.31,15.31,0,0,0,5.23-3l.64-5.67h5.42L257.9,61.51h-5.42l.09-2Z"/><path class="cls-3" d="M272.35,59.51V52.85h3.07L289.11,0h12.42l13.6,52.85h3.08v6.66h-20.1V52.85h3l-2-8.1H283.87l-2.18,8.1h3.07v6.66Zm13.35-22.1h11.56l-5.67-23.5Z"/></g></g></svg>