<svg xmlns="http://www.w3.org/2000/svg" viewBox="0 0 231.62 131.82"><defs><style>.cls-1{fill-rule:evenodd;}</style></defs><title>Recurso 2</title><g id="Capa_2" data-name="Capa 2"><g id="Capa_1-2" data-name="Capa 1"><path class="cls-1" d="M154.42,38.65a11.23,11.23,0,0,0,.23-7.61,4.51,4.51,0,0,1,.5-3.59,5.56,5.56,0,0,0,.29-5.42,20.7,20.7,0,0,1-1.31-3.76c-.65-2.72-4-5.14-8.27-3.62a3.47,3.47,0,0,0-2.5,2.34,6.22,6.22,0,0,0-.05,2.68,5.9,5.9,0,0,1-.14,2.83,29.63,29.63,0,0,0-1,5A26.38,26.38,0,0,1,141,34.88a13.26,13.26,0,0,0-.48,3.38c-.18,2-.25,4-.47,6-.2,1.76-.55,3.52-.83,5.28a4.62,4.62,0,0,1-.34,1.75c-1.38,2.25-.59,4.25.79,6.19a2.83,2.83,0,0,0,.95.73,5.67,5.67,0,0,0,4.16.31,6.82,6.82,0,0,0,4.84-4.28c1.19-2.93,2.17-5.9,3.21-8.85a4.26,4.26,0,0,0,.07-1.11l-7.33.49c-.27,1-.52,1.88-.79,2.88l3.08.34c-.6,1.7-1.16,3.29-1.73,4.87a8,8,0,0,1-.45,1,3.8,3.8,0,0,1-.62.84,3.7,3.7,0,0,1-3.5.62,1.61,1.61,0,0,1-1.13-2.16c.28-1,.75-2,1.09-3,1.24-3.76,2.76-7.48,3-11.38a18.1,18.1,0,0,1,.43-2.72,4.07,4.07,0,0,1,1.89-2.72c1.6-1,3.62-.42,3.92,1.14a8.07,8.07,0,0,1,0,2.3c-.08.67-.26,1.34-.43,2.13l4.17-.28"/><path class="cls-1" d="M200.71,11.18c.48,2.68.92,5.12,1.37,7.62l5-.34A24.64,24.64,0,0,1,207,21.2c-.18,1.35-.58,2.69-.73,4-.35,3.11-.38,6.22-1,9.35a77.88,77.88,0,0,1-2.46,8.94,95.66,95.66,0,0,0-3.63,12.54c-.37,2-.08,3.68,1.89,5a4,4,0,0,1,2,3.71,22.68,22.68,0,0,0,.15,2.38l4.21,0c0-.93,0-1.66,0-2.38a4.63,4.63,0,0,0-1.95-3.91c-.4-.31-.77-.66-1.16-1a2.34,2.34,0,0,1-1.06-2.32c.42-2.16.67-4.35,1.26-6.48.74-2.62,1.79-5.21,2.66-7.82.68-2,1.36-4.07,1.91-6.12a37.91,37.91,0,0,0,.71-4.06,27.59,27.59,0,0,0,.55-4.21,22.55,22.55,0,0,1,.68-6.09,30.6,30.6,0,0,0,.61-4.66l4.79-.31a41,41,0,0,0-1.16-7.29l-14.57.7"/><path class="cls-1" d="M124.44,57.7c.3-1.09.54-2,.76-2.82.9-3.55,1.88-7.09,2.64-10.66.55-2.56.57-5.19,1.26-7.73a50.64,50.64,0,0,0,2.1-9.93c.17-2.72.34-5.44.46-8.15a5.49,5.49,0,0,0-.25-1.39l-5.63.37c-.12,7.69-.75,15.25-3.84,22.87-.77-3.94-1.37-7.65-2.23-11.32s-1.64-7.4-3.77-10.9c-1.86.31-3.75-.06-5.44.77-.09,1.78-.13,3.48-.28,5.19-.35,4.16-.51,8.32-2,12.42a50.08,50.08,0,0,0-1.35,6.75q-.84,4.13-1.75,8.25c-.52,2.28-1.1,4.55-1.69,7l5.89-.4c1.36-5.92,3.41-11.69,3.82-17.67.15-2.09,1-4.18,1.6-6.26.48.26.55.49.59.72a45.79,45.79,0,0,0,1.39,6.68,30,30,0,0,1,2,10.58c0,1.87.23,3.74.36,5.71l5.32,0"/><path class="cls-1" d="M60.11,43.42a49.21,49.21,0,0,0-1-5.4c-1.33-4.52-2.82-9-4.27-13.49a7.63,7.63,0,0,0-.72-1.24l-5.51.57c0,.75-.08,1.25-.1,1.76-.19,5.37-.55,10.73-2.4,16a13.43,13.43,0,0,0-.91,3.93c-.14,4.65-1.63,9.15-2.84,13.69-.16.6-.2,1.2-.31,1.87l5.85-.4c1-3.84,2.1-7.55,2.79-11.3s.74-7.42,2.53-11.23a7.75,7.75,0,0,1,.53,1.56,27.83,27.83,0,0,0,2,7.53,19.84,19.84,0,0,1,1.49,7.81c0,1.76.2,3.52.32,5.33A16.67,16.67,0,0,0,63.23,60c1-3.57,2-7,2.76-10.54.52-2.3.59-4.66,1.05-7,.87-4.39,2.42-8.7,2.56-13.15.08-2.33.25-4.66.4-7.14l-5.9.39c-.27,7.11-.67,14.09-4,20.84"/><path class="cls-1" d="M183.87,67.28c.87-2.68.47-3.62-2.15-5.21-1.12-.68-2.48-.63-4.25.13.76.74,1.82,1.41,2.23,2.28a8.89,8.89,0,0,1,.29,3.06l3.88-.26"/><path class="cls-1" d="M175.62,67.6c-.87-1.78-1.67-3.38-2.51-5.09l-4.21.56c.65,1.42,1.22,2.73,1.88,4a1.35,1.35,0,0,0,1,.59c1.2,0,2.4,0,3.88-.07"/><path class="cls-1" d="M164,67.75a3.39,3.39,0,0,0-1.39-3.53,1.35,1.35,0,0,0-.88-.31c-1.1.11-2.2.3-3.24.45.54,1.22,1,2.3,1.52,3.4h4"/><path class="cls-1" d="M145.79,68a10.38,10.38,0,0,0,1.65-.5c.76-.38.75-1,0-1.28a4.66,4.66,0,0,0-3.5,0c-.72.29-.85.87-.19,1.18a13.37,13.37,0,0,0,2.07.61"/><path class="cls-1" d="M177.29,19.82c-.29-.73-.54-1.46-.78-2.2-.93-2.94-2.83-4.5-5.84-4.49-2.64,0-5.28.32-8,.5a5.7,5.7,0,0,0,0,1.09c.28,1.56.59,3.12.91,4.68a17.74,17.74,0,0,1-.22,6.92c-.16.8-.36,1.61-.44,2.42-.23,2.31.19,4.62-.51,6.93a8.52,8.52,0,0,0-.48,2c-.13,2.9-1.36,5.64-2.22,8.43-.4,1.28-.94,2.55-1.39,3.82-.61,1.72-1.29,3.43-1.78,5.16a40.88,40.88,0,0,0-.73,4l4.19.05a37.41,37.41,0,0,1,3.63-11.68H166c-.08,2.07-.31,4-.2,6s.58,3.84.91,5.87l4.46.07a56.69,56.69,0,0,1-1-5.78c-.16-2.12,0-4.26,0-6.39a1.24,1.24,0,0,1,.79-1.13,11.15,11.15,0,0,0,5.45-7.47c.28-1.21.37-2.44.59-3.65a11.3,11.3,0,0,0-.22-5,5.06,5.06,0,0,1,.41-3.89,6.73,6.73,0,0,0,.08-6.23m-4.55,15.07c-.31,1.71-.55,3.43-1,5.13a6.17,6.17,0,0,1-1.19,2.12,4.25,4.25,0,0,1-3.37,1.5l-2.51,0a70.9,70.9,0,0,0,2.54-12.83,19.84,19.84,0,0,1,2.59-.31,2.93,2.93,0,0,1,3.07,3,6.3,6.3,0,0,1-.15,1.36"/><path class="cls-1" d="M226.54,43.05c.37-2.76,1.3-5.47,1.33-8.25,0-1.18.19-2.36.24-3.54a34.85,34.85,0,0,0,.06-3.54c-.09-1.81-.33-3.61.44-5.41a8.08,8.08,0,0,0,.33-5.24c-.24-1-.38-1.57-.68-2.53-.43-1.39-.92-2.19-1.45-3.8l-3.65.24c.11,1.64.06,1.67.19,2.66a21.16,21.16,0,0,1-.33,7.13c-.37,1.84-.53,3.61-.76,5.47a18.77,18.77,0,0,1-.2,2.12c-.43,1.79-1.05,3.52-1.43,5.31-.82,4-2.86,7.62-4.78,11.31-2.11,4-4,8.12-5.72,12.26a1.23,1.23,0,0,0,.35,1.62c.72.57,1.47,1.12,2.24,1.65,1.5,1,2.11,2.28,1.56,3.88-.3.86-.45,1.76-.7,2.79l4.35.27c.26-1.38.5-2.64.72-3.89a3.06,3.06,0,0,0-1.46-3.16,15.75,15.75,0,0,1-2-1.47c-.41-.39-.9-.94-.83-1.38a18.21,18.21,0,0,1,1-3l6.1.32c-.26,2.28,1.53,3.76,2.84,5.42A9.45,9.45,0,0,1,226,64.2a14.22,14.22,0,0,0,1,2.84,1.52,1.52,0,0,0,1.05.75c1.12.1,2.26,0,3.51,0a36.25,36.25,0,0,1-1.33-3.48A14,14,0,0,0,226.67,58a2.93,2.93,0,0,1-.88-1.57,47.48,47.48,0,0,1-.39-7c.12-2.12.86-4.23,1.14-6.35m-5.29,7.87-4.38-.12,7.19-15.35c-.45,5.07-2.06,10.13-2.81,15.47"/><path class="cls-1" d="M150.14,25.63a1.23,1.23,0,0,1-1.22,1.26.73.73,0,0,1-.85-.8,1.31,1.31,0,0,1,1.12-1.32.79.79,0,0,1,.95.86"/><path class="cls-1" d="M195.24,21.22a11.28,11.28,0,0,0-.55-3c-.52-2.06-1.05-3.11-1.67-5.82l-3.66.25a9.92,9.92,0,0,0,0,2.18,18.78,18.78,0,0,1-.08,8.07,18.73,18.73,0,0,0-.57,4c0,4.29-1.45,8.35-3.06,12.39A62.9,62.9,0,0,1,181,48.2c-1.94,3.25-3.53,6.58-5.11,9.93a10.83,10.83,0,0,0-.4,1.3l4.07,0,2.38-5.54,6,.07c.08,1.21.18,2.24.21,3.29a5.47,5.47,0,0,0,1.42,3.66A18.52,18.52,0,0,1,192,64.59a12.44,12.44,0,0,1,.79,2.62H197c0-.39-.08-.61-.12-.83a10.83,10.83,0,0,0-3.09-5.77,4.3,4.3,0,0,1-1.34-3,20.85,20.85,0,0,0-.22-3.26,16.82,16.82,0,0,1,.25-5.7c.53-3.56,1.15-7.12,1.66-10.69.16-1.13,0-2.27.14-3.4a18.5,18.5,0,0,0,0-5.56,7.94,7.94,0,0,1,.5-4.44,9.19,9.19,0,0,0,.54-3.35M188.3,49.88l-4.44.06a128.72,128.72,0,0,0,6.5-13,71.75,71.75,0,0,1-2.06,12.91"/><path class="cls-1" d="M95.74,20.82A13,13,0,0,0,84.19,22c-3.61,2.49-4.59,5.77-5.06,9.26-.26,1.94-.69,3.87-1.1,5.8-.56,2.69-1.33,5.36-1.72,8.06a59.39,59.39,0,0,0-.67,8.51c0,3.2,2.77,5.74,6.35,6.11a9.57,9.57,0,0,0,6.7-1.83c4.56-3.28,7.53-7.27,7.92-12.15a50.61,50.61,0,0,1,2-9.95A76.44,76.44,0,0,0,100.09,28c-.37-3.89-1.93-6.15-4.35-7.2m-1.86,8.34a44.24,44.24,0,0,1-2,9.74,43,43,0,0,0-1,6.19c-.21,1.26-.43,2.51-.74,3.76-.4,1.63-1.8,2.7-3.62,3.43-2.19.88-4.23,0-4.63-1.83a6,6,0,0,1-.07-.94l-.24,0c.61-3.45,1-6.94,1.89-10.35a52.26,52.26,0,0,0,1.9-9A6.54,6.54,0,0,1,86,27.76a5.24,5.24,0,0,1,5.52-2.3c1.72.38,2.49,1.76,2.32,3.7"/><path class="cls-1" d="M60,11.75c.22.2.37.31.5.44.48.47,1.09.83.95,1.7A3.3,3.3,0,0,1,60,16.4c-1.47.89-2.79,1.07-3.78-.92A36.15,36.15,0,0,1,54,10.69a9.6,9.6,0,0,1-.26-3.51,2.18,2.18,0,0,1,2.5-1.86,4.57,4.57,0,0,1,4.3,5.07l-4.72,0A3.68,3.68,0,0,0,57,12.63c.95.88,2.19.52,2.93-.88M58.68,9c-.42-1.47-1.33-2.2-2.27-1.94-.75.22-1,.86-.68,2l3,0"/><path class="cls-1" d="M88.68,9.5l-5.08.24a2.33,2.33,0,0,0,1.53,1.91,1.83,1.83,0,0,0,2.35-1c.26.16.49.28.7.42.91.63.91.64.41,1.62-.25.46-.47.93-.72,1.39a1.88,1.88,0,0,1-3.13.33c-.68-.82-1.26-1.73-1.94-2.55a7.42,7.42,0,0,1-1.37-4.63,2.36,2.36,0,0,1,2.38-2.54A4.42,4.42,0,0,1,88,7.3c.23.67.42,1.36.67,2.2M86.4,8.14c-.29-1.33-1-1.89-2.09-1.77a1.23,1.23,0,0,0-1,1.37c.06.55.25.65,1.12.58l2-.18"/><path class="cls-1" d="M50.59,7.27c-.24.31-.47.61-.73,1a9.25,9.25,0,0,0-1-.62,1.23,1.23,0,0,0-1.91.9,4.23,4.23,0,0,0,.39,3,19.34,19.34,0,0,0,1.27,2,.83.83,0,0,0,1.51-.19c.15-.29.35-.56.52-.83,1.87.82,2.2,2.84.68,4a4.26,4.26,0,0,1-1.71.83,1.81,1.81,0,0,1-2.36-1.27,55,55,0,0,1-2.15-5.56A8.09,8.09,0,0,1,45,7.5a1.94,1.94,0,0,1,2-1.85,3.47,3.47,0,0,1,3.58,1.62"/><path class="cls-1" d="M107.26,8.83c-1.74.25-3.35.13-4.94.21.21,2,1.77,2.37,3.86,1l1.23.8c-.17,1.41-1.33,1.77-2.23,2.35a1.08,1.08,0,0,1-.88,0c-2-.91-3.65-2.1-4-4.48a18.09,18.09,0,0,1-.27-1.92,2.45,2.45,0,0,1,2.85-2.65,4.5,4.5,0,0,1,3.9,2.93,15.08,15.08,0,0,1,.46,1.74m-2.21-1.25c-.32-1.33-1.13-1.95-2.2-1.78-.79.12-1,.59-.83,1.79h3"/><path class="cls-1" d="M124.25,4.56a3.83,3.83,0,0,1,6.48,1.71c.38,1.63.65,3.29,1,4.93-1.05.52-1.13.51-1.9-.15a3.21,3.21,0,0,1-4.86-1A1.89,1.89,0,0,1,126,7.17a8.26,8.26,0,0,1,1.58-.25c.45,0,.9-.06,1.35-.08-.15-1.75-1.44-2.15-3.83-1.16l-.89-1.12m5.05,3.57a16.72,16.72,0,0,0-2.07.26,1,1,0,0,0-.64.67,1.2,1.2,0,0,0,.39.87,1.78,1.78,0,0,0,2,.05c.59-.37.68-.68.37-1.85"/><path class="cls-1" d="M71,5.34c1.63-.27,1.75-.23,2.46,1.08C74,7.5,74.49,8.6,75,9.7l.41.82c.71-1.83.57-3.62.74-5.41l1.83,0a7.94,7.94,0,0,1-.2,3.16A18.66,18.66,0,0,0,77.49,14a1.93,1.93,0,0,1,0,.34c0,1.07-.13,1.18-1.19,1.18-.14,0-.29,0-.5-.06C75,11.73,72.66,8.75,71,5.34"/><path class="cls-1" d="M97.06,5.9l-.79.93c-.41-.22-.76-.44-1.14-.6-1-.42-1.8,0-1.8,1.12a7.88,7.88,0,0,0,.28,2.38,3.06,3.06,0,0,0,1.11,1.37c.61.46,1.21.21,2.13-.69l1.39.84a2.92,2.92,0,0,1-1.76,2.66,2.08,2.08,0,0,1-1.94-.48,13.18,13.18,0,0,1-1.94-1.94c-1.22-1.45-1.3-3.23-1.26-5a2.13,2.13,0,0,1,2-2c1.28-.24,2.17.08,3.73,1.43"/><path class="cls-1" d="M67.11,16.24l-1.71.13c-.05-3.8-1.61-7.21-2-10.93.66-.08,1.39-.37,1.94.44C66.66,4.81,67.43,4.81,69,6c-.19.4-.4.82-.62,1.25a8.47,8.47,0,0,0-1.07-.3C66.4,6.82,66,7.17,66,8.07a9,9,0,0,0,.49,3.28,11.08,11.08,0,0,1,.67,4.89"/><path class="cls-1" d="M111.8,4.77a2.26,2.26,0,0,1,3.57-.09l-.61,1.19c-.34-.09-.62-.18-.91-.24-1.18-.22-1.74.31-1.54,1.56.23,1.46.56,2.91.85,4.36,0,.22.11.43.19.76H111.6c-1-2.54-.95-5.39-1.94-8.09.85-.05,1.62-.47,2.14.54"/><path class="cls-1" d="M121.74,11.83c-1.87.29-1.75.4-2.21-1.29-.12-.44-.13-.91-.22-1.35-.33-1.57-.67-3.14-1-4.71a5.29,5.29,0,0,1,0-.54h1.67c1,2.49,1,5.23,1.81,7.9"/><path class="cls-1" d="M118.27,2.51c1.87.1,1.75.13,2.2-.4a2.58,2.58,0,0,0,.22-.44l1-1.49a.49.49,0,0,0,0-.17H120c-.94.79-1,1.66-1.77,2.51"/><path class="cls-1" d="M27.31,61.79c.12,1.78.56,5.32,1.31,6.36a7.45,7.45,0,0,0,.57.69c.38.41.77.81,1.17,1.19s.87.69,1.23,1.09a10.23,10.23,0,0,0,2.68,1.77,21.61,21.61,0,0,0,3.14,1.25c.72.29,1.49.44,2.21.73a7.6,7.6,0,0,1,1.21.75c.08,0,.15.13.24.14q1.11.21,2.25.39c.2,0,.4,0,.6.08a31.26,31.26,0,0,0,3.29.63,22.38,22.38,0,0,0,2.94-.16c1.31-.07,2.63-.08,3.94-.19a27.34,27.34,0,0,0,5.59-1c1.29-.4,2.65-.6,3.94-1,1.72-.51,3.39-1.16,5.11-1.66,2.39-.69,4.8-1.3,7.2-1.93a41.5,41.5,0,0,1,4.06-1,11.06,11.06,0,0,1,4.52-.22,11,11,0,0,0,3.75.13,26.17,26.17,0,0,1,7.34.52c2,.32,3.89.81,5.85,1,1.8.15,3.49.75,5.24,1a22.78,22.78,0,0,1,4.22,1.26c1.67.61,3.42,1.06,5.06,1.76a21.07,21.07,0,0,1,5.48,3.32,11.82,11.82,0,0,0,2,1.44,9.8,9.8,0,0,1,2.65,2.76,44.64,44.64,0,0,1,2.65,3.76,25.93,25.93,0,0,1,1.67,2.83c.87,1.72,1.59,3.52,2.51,5.2a6.63,6.63,0,0,1,.86,2.06c0,.31.11.61.16.83.22.19.51.32.59.53.3.88.52,1.8.83,2.68.12.34.47.59.58.92.19.57.23,1.19.41,1.77s.47.85.58,1.3c.19.77.23,1.59.42,2.36.38,1.6-.14,3.14-.26,4.7-.05.61.06,1.22,0,1.83-.09.93-.23,1.85-.38,2.78-.22,1.35-.45,2.71-.71,4.06a15.89,15.89,0,0,1-.47,1.63c-.29.86-.61,1.71-.89,2.57a.71.71,0,0,0,0,.54c.48.63,0,1.08-.31,1.78a6.24,6.24,0,0,1-.58-1.09c-.42-1.34-.81-2.69-1.2-4a1.4,1.4,0,0,0-.33-.73,5.45,5.45,0,0,0-.87,2.67,13.6,13.6,0,0,1-.43,3.2c-.23,1.2-.56,2.38-.8,3.58-.14.71-.75.61-1.19.74a.77.77,0,0,1-1-.35,10.17,10.17,0,0,0-1.31-1.63c-.35-.39-.61,0-.84.2a6.47,6.47,0,0,0-.79,1,13.48,13.48,0,0,1-.68,1.24c0,.05-.47-.05-.52-.17-.4-.83-.77-1.67-1.09-2.52s-.58-1.64-.82-2.48a.67.67,0,0,1,.22-.51c.55-.61.53-.79,0-1.41a5.67,5.67,0,0,1-.79-1.28,2.42,2.42,0,0,1,0-.93l.21,0c-.26-.25-.49-.53-.77-.75a13.21,13.21,0,0,1-3.06-3.76c-.08-.14-.25-.22-.31-.36a3.09,3.09,0,0,1-.12-.62c.2.06.45.06.58.19.51.47,1,1,1.46,1.48a2,2,0,0,0,.32.25c.34-.39.17-1-.46-1.37a11.8,11.8,0,0,1-2.1-1.26,5,5,0,0,1-1.34-2.11,2.16,2.16,0,0,0-1.09-1.41l-.15.54c-1.34-.37-1.5-.63-1.23-2.06l-.95-.19a.93.93,0,0,1-.37-.15c-.73-.6-1.45-1.2-2.16-1.83a5.21,5.21,0,0,1-.69-.79,1.3,1.3,0,0,0-1.48-.4,11.39,11.39,0,0,1-5.19-.28,12.68,12.68,0,0,0-1.51-.17l-3-.47a3.91,3.91,0,0,1-.74.44c-1.27.43-2.55.83-3.84,1.23-1,.31-2,.59-3,.91s-2.09.66-3.12,1q-2.5.95-5,1.94c-.57.23-1.16.46-1.18,1.35l-.47-.49c-1.07.66-2.14,1.32-3.23,2a3.42,3.42,0,0,1-.88.37,8.39,8.39,0,0,0-2.6,1.48c-1.28.95-2.87,1.06-4.29,1.61-2.45.95-4.88,1.95-7.31,2.93a4.53,4.53,0,0,1-.84.32,28.59,28.59,0,0,1-3.29.66,33.26,33.26,0,0,1-3.46,0c-.47,0-1,0-1.42,0a1.42,1.42,0,0,1-.33-.11c-.12,0-.31-.13-.35-.09-.64.7-1.44.18-2.16.29l-.72.12c-.19-.29-.4-.91-.74,0,0,.07-.25.08-.37.07L44,122.54c-.54-.05-1.08-.13-1.63-.2-.17.8.37,1.24.7,1.77.53.84,1.08,1.67,1.7,2.63-.34,0-.48.08-.54,0A11.8,11.8,0,0,0,40,124.51c-1.47-.46-2.86-1.18-4.33-1.61A24.25,24.25,0,0,1,32,121.63c-.53-.26-1.21-.22-1.73-.48-1.34-.68-2.57-1.56-3.93-2.17A13.94,13.94,0,0,1,22,115.91a7.34,7.34,0,0,0-.92-.61c-.32-.26-.61-.55-.9-.83-.13-.13-.21-.31-.35-.43-1.19-1.07-2.4-2.13-3.6-3.19-.85-.76-1.75-1.47-2.52-2.29-1.34-1.42-2.6-2.9-3.87-4.37a13.65,13.65,0,0,1-1.54-2c-.32-.55-.33-1.27-.61-1.86-.47-1-1-2-1.58-2.92a.51.51,0,0,0-.24-.24,1.63,1.63,0,0,1-1-1.84,1.76,1.76,0,0,0-.14-.63l.82-.61-.06-.17c-.16,0-.39-.07-.48,0-.59.51-.94.22-1.26-.31,0,0-.12,0-.26-.11l-.33.9.5-.09L3.07,95l-.4-.13c.1.35.18.62.31,1l-1.29.11c.82,1.18.13,1.94-.77,2.8A4.12,4.12,0,0,1,.63,96.3a11.59,11.59,0,0,0,.22-2.71,6.51,6.51,0,0,0-.21-1.44A33.23,33.23,0,0,1,0,84.5c0-1.51-.08-3,.06-4.54s.51-3,.78-4.47.43-3,.78-4.41.85-2.63,1.28-3.94c.17-.52.38-1,.5-1.54.16-.68.21-1.39.36-2.07.3-1.3.62-2.6,1-3.88s.64-2.3,1-3.41a49.07,49.07,0,0,1,3.55-8.5c.63-1.09,1.24-2.19,1.93-3.25a6.55,6.55,0,0,1,1.15-1c-.31-.52-.23-.81.38-1.41.17-.16.22-.43.37-.63s.28-.37.42-.37c.48,0,1.14-1.26,1.43-1.61,1.16-1.4,3-2.18,4.08-2.81,6.89-4.1,14.09-3.09,15-2.72A24.56,24.56,0,0,1,33,40.05l-1.76,4a52.26,52.26,0,0,0-2.4,6.17,36,36,0,0,0-1.2,6.36M88.7,94.18l.31-.94-.68-.75c-.18.3-.18.3.27,1.73l-1-.2.22.58c-.47.23-.48.26-.24.75.21-.09.4-.19.61-.27s.53-.11.65-.28-.11-.41-.18-.62M86.59,104l-.88.38-1,.61s0,.17.07.25L83.39,105l-.72-.13-.06.25,1.16.57c-.14.58-.07,1.27-.69,1.61l-.06-.25-.81-.27c0-.35,0-.69,0-1.16a5.39,5.39,0,0,0-.69.47,4.56,4.56,0,0,0-.44.56c.36.11.54.86,1,.21,0,.24,0,.48.07.77l-.63-.43c-.08.3-.14.53-.21.75s-.08.26-.17.32c-.47.3-1,.58-1.44.85-1,.55-2,1-3,1.66A22.62,22.62,0,0,1,72.38,113c-1.44.57-2.95.94-4.42,1.42-1,.33-2,.72-3,1.06s-2.07.71-3.13,1c-.63.16-1.31.16-2,.26-1.89.27-3.78.63-5.68.8-1.64.14-3.29,0-4.93.1s-3.27.27-4.9.49a9.75,9.75,0,0,0-1.83.63l.61.42c.73.46,1.56.22,2.33.28,1.37.12,2.77,0,4.14.1a25,25,0,0,0,7.21-.58c1.49-.27,3-.45,4.52-.62,1.14-.13,2.29-.18,3.48-.27-.2-.4-.2-.4-1.62-.59a94.61,94.61,0,0,0,21.18-8.81l1.69.12c.13-1.09.74-1.54,2-1.63l.47.53.14-.14-.35-.84.78-.28c.5-.15,1.17-.15,1.47-.48a5.39,5.39,0,0,1,3-1.32c1.41-.36,2.86-.58,4.48-.89l-.52.7a5,5,0,0,0,.75.1c.76,0,1.53-.11,2.29-.13a14,14,0,0,1,4,.35,34.58,34.58,0,0,1,4.57,1.43,21.54,21.54,0,0,1,2.62,1.34c1.34.79,2.65,1.64,4,2.46a5.66,5.66,0,0,1,2.27,2c.1.19.47.24.67.33a3.06,3.06,0,0,0,.19.49c.83,1.43,2,2.6,2.77,4.12.54,1.11,1.17,2.18,1.72,3.29a25.51,25.51,0,0,1,1.5,4,3.21,3.21,0,0,0,1.35,2.14c.19-.67.35-1.25.51-1.84a1.47,1.47,0,0,0,.21,0c.43,1.51.57,3.17,2.13,4.22a8.8,8.8,0,0,1,.31-2.47,13.14,13.14,0,0,0,.59-2.62c.31-1.48.6-3,.94-4.43a5.06,5.06,0,0,1,.52-1,1.74,1.74,0,0,0,.15-.54,3.37,3.37,0,0,0,0-.55l.21,0c.14.35.29.7.44,1s.24.55.37.82a4.42,4.42,0,0,0,.78-.56,5.34,5.34,0,0,0,1.18-2.45,20.23,20.23,0,0,0,.89-4.06,22.43,22.43,0,0,0-.58-5.21c-.27-1.24-.26-2.63-1.28-3.63a.31.31,0,0,1-.09-.19c0-.61-.78-1-.59-1.66,0-.11-.09-.27-.17-.38a12.09,12.09,0,0,1-1.09-1.49c-.31-.59-.43-1.28-.72-1.88a5.12,5.12,0,0,0-1.08-1.76,1.71,1.71,0,0,1-.74-1.33,3.74,3.74,0,0,0-.58-1.57c-.42-.66-1-1.23-1.47-1.87-.71-1-1.07-2.24-2.13-3a.21.21,0,0,1-.1-.17c.21-.66-.49-.79-.7-1.2-.08-.17-.33-.24-.44-.4-.43-.64-.86-1.27-1.25-1.94-.67-1.15-2-1.78-2.38-3.17,0-.07-.15-.11-.21-.18l-.63-.69a3.11,3.11,0,0,0-.61-.64c-1.13-.64-2.3-1.24-3.44-1.86l-.54-.29a12.61,12.61,0,0,0-1.57-1c-.6-.25-.69-.1-.67.56,0,.33.3.79-.43,1.06-.13-.68-.24-1.31-.38-2-.73-.16-1.64-.29-2.5-.56-1.17-.36-2.44-.37-3.52-1.07-.32-.2-.85-.07-1.2-.24-.91-.46-1.81-.18-2.72-.23.31.57.55,1.09.87,1.56s.71.83,1,1.26a1.54,1.54,0,0,1,.18.48,1.78,1.78,0,0,1-.49.13c-.87,0-1.74-.13-2.6-.14-1.19,0-2.41-.2-3.46.66.1.09.19.25.29.26,1.11.06,1.52,1,2.19,1.67a7.86,7.86,0,0,1,1.16,1.51c.27.41.07.64-.39.69-1.07.11-2.14.22-3.21.35a14.37,14.37,0,0,0-1.62.24c-.55.12-1.08.31-1.77.51.17.16.31.32.46.45a10,10,0,0,1,.78.65c.79.85,1.57,1.72,2.35,2.58.23.26.48.51.72.76l-.93.65s-.1,0-.14,0a8.37,8.37,0,0,0-2.49,1.57,13.24,13.24,0,0,1-1.66,1.36c-.36-.73-.57-.23-.74-.11.16.35.4.65.38.92s-.31.54-.49.83a2.39,2.39,0,0,0,1,.06,3.19,3.19,0,0,1,2.63.49c.68.39,1.13,1.22,2,1.55l-5.14,2.36c.07.61.14,1.31.22,2h.22l.38-.38c0,.36,0,.62,0,1l.68-.47,3.86,1.82,0,.21a7.83,7.83,0,0,1-.79.34c-1.74.49-3.5.93-5.23,1.45-.54.16-1,.31-1.44-.17-.24.22-.33.94-.78.2,0-.07-.34,0-.52,0l.52.79-1.79.75c0-.16,0-.33,0-.49.12,0,.36.08.36.07.1-.42.19-.86.27-1.28l-.21-.07-.77.67c.12-.44.25-.89.38-1.34-.15-.32-.31-.64-.5-1l1.16.31c-.09-.61-.14-1.14-.24-1.66,0-.18-.22-.34-.33-.51-.07.17-.12.34-.19.5a.46.46,0,0,1-.11.16A2.48,2.48,0,0,0,87,102c0,.06,0,.11,0,.2l-.49-.25c-.43.81-.37,1,.43,1.62l-.3.44m-81-34.36c.16.39.38.65.35.88a15.17,15.17,0,0,1-.39,1.58c-.16.67-.33,1.34-.45,2s-.2,1.64-.36,2.46c-.24,1.21-.53,2.41-.8,3.62a11.08,11.08,0,0,0-.21,1.15,3.46,3.46,0,0,0,.06.71H4l.21-.75a1.86,1.86,0,0,1,.21,1c-.08.51-.44,1-.36,1.51a6.56,6.56,0,0,1-.09,2.79c0,.18.2.44.32.66l.2,0a7.85,7.85,0,0,0,.26-1c.07-.51.06-1,.15-1.52.14-.78.35-1.54.5-2.31.08-.46.1-.93.16-1.4.12-.81.25-1.62.36-2.44.07-.51.07-1,.19-1.54.2-.88.5-1.73.69-2.6.31-1.42.55-2.85.83-4.28.19-.92.41-1.83.6-2.75.08-.34,0-.87.21-1s.32-.5.37-.79.13-.77.23-1.15c.29-1,.58-2.05.9-3.07.43-1.34.88-2.68,1.37-4,.14-.36.16-.59-.18-.81,0,0,0-.12,0-.26l.39.26c.52-.45.13-1.08.56-1.64A8.65,8.65,0,0,0,13,52.36c.29-.92.59-1.84.86-2.77a15.58,15.58,0,0,0,.45-2c0-.27-.21-.58-.36-.94-.46.81-.89,1.45-1.21,2.15-.57,1.26-1.09,2.55-1.59,3.84-.2.53-.26,1.11-.47,1.63-.47,1.19-1,2.36-1.5,3.53-.18.42-.32.86-.47,1.29a24.79,24.79,0,0,0-.94,2.62c-.34,1.38-.48,2.82-.85,4.19S6,68.49,5.56,69.66m9.54,36.1c-.27.6,0,.87.47,1.13a4.06,4.06,0,0,1,.83.78c.53.53,1.05,1.08,1.59,1.61,1.36,1.35,3.23,2.12,4.35,3.75,0,0,.08,0,.12,0,.51.24,1,.5,1.54.72a2.32,2.32,0,0,0,.62.11,3,3,0,0,0,.56.86c1,.76,2,1.47,3,2.2a6.91,6.91,0,0,0,1.1.81,5.32,5.32,0,0,1,1.92,1.32.77.77,0,0,0,.71,0c.42-.28.79-.23,1,.21.41.87.87,1.12,2,1a2.69,2.69,0,0,0-.4-.85c-.71-.68-1.46-1.32-2.22-2-.1-.09-.44,0-.45-.09-.17-.6-.74-.71-1.15-1-1.95-1.38-4.11-2.43-6-3.93-.94-.75-1.89-1.48-2.84-2.23-.36-.28-.44-.71-.79-1a8.06,8.06,0,0,1-1-.88c-.4-.41-.66-1-1.13-1.28-1.25-.66-1.87-1.86-2.73-2.85s-1.62-2.13-2.4-3.22c-.44-.61-.85-1.26-1.26-1.9a4.92,4.92,0,0,0-.44-.78c-.85-.93-1.72-1.83-2.61-2.72a5.49,5.49,0,0,0-.93-.6c-.07.07-.15.14-.22.22A37,37,0,0,0,10,98.7c1.09,1.86,2.24,3.68,3.48,5.44.42.61.55,1.59,1.64,1.62M53.19,83.07c.35.18.63.44.91.44a14.85,14.85,0,0,0,2.31-.14,12.14,12.14,0,0,0,2.77-.45c1.58-.55,3.11-1.28,4.66-1.94,0-.69-.45-1.18-1-1.07a14.6,14.6,0,0,0-2.7.67,17.65,17.65,0,0,1-5.87,1.15,5.2,5.2,0,0,0-1.05.24,1.17,1.17,0,0,0-1.32-.14.49.49,0,0,0,.12.9c.42.15.86.24,1.2.34m.37,6.07a1.85,1.85,0,0,0,0,.23c.33.06.65.14,1,.17.75,0,1.51,0,2.26.13a4.79,4.79,0,0,0,2.62-.16c1.39-.6,2.85-1.06,4.26-1.62.12,0,.23-.5.17-.54a1.69,1.69,0,0,0-.89-.49,8.89,8.89,0,0,0-2.25.17c-1,.26-2,.68-3,1-.51.17-1,.35-1.54.49-.85.22-1.72.4-2.57.6M38,78.3l-.11.22a3.05,3.05,0,0,0,.69.52c1.1.43,2.2.85,3.32,1.19a11.68,11.68,0,0,0,5.32.45c.49-.08.75-.3.77-.78s-.34-.66-.77-.71c-1.21-.13-2.43-.24-3.64-.38s-2.51-.33-3.76-.45c-.61-.07-1.22,0-1.82-.06m-17.83-24a1.47,1.47,0,0,1,0-.49c.16-.63.36-1.25.55-1.87.09-.3.32-.62.28-.9-.09-.79-.32-1.56-.43-2.34a1.9,1.9,0,0,1,.07-1.19.9.9,0,0,0-.27-1.44c-.07.35-.14.67-.21,1l-.85-.38c-.14.64-.3,1.19-.37,1.75-.09.73,0,1.47-.17,2.19a10.22,10.22,0,0,0,.42,4.8l1-1.16M38.37,87.2a3.38,3.38,0,0,0,2.67.2.93.93,0,0,1,.64,0c.22.63.73.32,1.1.38.57.08,1.15.09,1.72.15l2.54.27a1.83,1.83,0,0,1,.14-.48,2.48,2.48,0,0,1,.4-.39L47,86.78l.54-.41,0-.22-1.63-.1,0,.2.63.27a.78.78,0,0,1,0,.14h-1l.09-.15c-.22-.2-.44-.55-.66-.56a7.91,7.91,0,0,0-2.18.15,3.22,3.22,0,0,1-2.12,0,8.74,8.74,0,0,0-1.53-.33c-.26-.07-.53-.11-.79-.16,0,0-.07.05-.15.11l.28.23c0,.5,0,.84-.06,1.23M25.57,70c0-.34.06-.84-.13-1-1-.87-1.12-2.19-1.75-3.23s-1.29-2-2-2.94a.55.55,0,0,0-.42-.19c-.11,0-.31.17-.31.24a10.62,10.62,0,0,0,.41,2.56,26,26,0,0,0,1.71,3.15c.2.35.34.78.91.65.11,0,.38.2.41.34.15.68.54.68,1.13.43m.68,12.37c.64.3,1.1.51,1.56.74a5.19,5.19,0,0,1,.75.46c.28.21.53.44.84.69.37-.45.58.16.81.37l.7-.47a3.17,3.17,0,0,0-2.25-1.69c-.07,0-.16-.06-.17-.11A2.44,2.44,0,0,0,27,80.81c-.21-.11-.27-.51-.48-.63A28.15,28.15,0,0,0,24,78.79a3.58,3.58,0,0,0-1.14-.1A11.12,11.12,0,0,0,26,82a1,1,0,0,1,.22.31m-7.2-8.26c.4-.3.6-.54.85-.61.51-.15.5-.32.28-.78-.33-.72-1-1.37-.61-2.31a.85.85,0,0,0-.16-.71c-.55-.72-1.14-1.41-1.74-2.08a.62.62,0,0,0-.54-.15.61.61,0,0,0-.25.51A7.27,7.27,0,0,0,17,69.42a10.18,10.18,0,0,0,.57,1.66c.43,1,.91,1.89,1.44,3m5.56,1.18c1.27,1.13,2.17,2.68,4.17,3-.32-.66-.56-1.26-.89-1.81s-.79-1.14-1.19-1.71a.67.67,0,0,0-.17-.2,6.07,6.07,0,0,1-2.07-2.34,1.82,1.82,0,0,0-1.64-1.09c.43,1,.84,2,1.31,3.13.62.31.64.34.48,1m65.92,6.21a2.79,2.79,0,0,1,.66-.14,8.93,8.93,0,0,0,4.39-1,12.39,12.39,0,0,0,1.19-.65c.06,0,0-.39,0-.42a2.41,2.41,0,0,0-1.1-.31,28.43,28.43,0,0,0-3.14.59c-.76.18-1.5.48-2.28.74.12.45.22.82.32,1.22M59.06,94.27c0,.25-.11.65.49.77a9.84,9.84,0,0,1,.94.3l.15-.22.68,0c.43.09.93.33,1.06.2.67-.64,1.88-.25,2.29-1.29,0,0,.12-.12.16-.11.76.27.76-.7,1.29-.82,0,0,0-.24-.05-.44-1.29.22-2.55.38-3.78.65-1.06.23-2.09.58-3.23.91M65.68,78c.13-.09.23-.23.32-.22.51,0,1,.08,1.52.08a1.66,1.66,0,0,0,.69-.16,11.94,11.94,0,0,1,2.29-1c.81-.15,1.08-.49,1.07-1.21-.47-.48-1-.34-1.55-.2-.8.2-1.61.38-2.42.57l.06-.25L67,75.34c.44.86.11,1.15-.52,1.28a2.34,2.34,0,0,0-.5.19c-.78.38-.78.39-.29,1.18m5.56,3.37a9.78,9.78,0,0,0-.62-1c-.09-.12-.29-.25-.41-.22a19.64,19.64,0,0,0-3.17.81,17.11,17.11,0,0,0-2.61,1.58,4.45,4.45,0,0,0-.47.41,10,10,0,0,0,1.84-.07c.66,0,1.36-.7,2,.16.17-.79.18-.79.92-1l2.54-.68m10.86,0a5.23,5.23,0,0,1,.48-.47,1.66,1.66,0,0,1,.74-.41c.55,0,1.12.09,1.67,0s1.45-.1,1.6-.42c.35-.76,1-.52,1.44-.7.68-.25,1.36-.53,2-.8L90,78.31c-.8.09-1.6.2-2.4.28s-1.54.14-2.31.21a2,2,0,0,0-.42.1,5.6,5.6,0,0,1-1.35.56,8,8,0,0,0-3.15,1.44c.5.57,1.28-.58,1.73.43M78,85.85l-.06-.3a4,4,0,0,0-.69,0c-.61.13-1.2.29-1.8.43A1.37,1.37,0,0,1,75,86c-.25,0-.56-.22-.75-.13-1.1.51-2.19,1.07-3.26,1.66a.65.65,0,0,0-.21.58c0,.18.29.45.45.45a4.25,4.25,0,0,0,1.31-.23c.9-.31,1.77-.74,2.68-1,.43-.12.78-.11.89-.64,0-.14.29-.27.47-.34.46-.19.94-.33,1.42-.49M19.25,57.06a2.43,2.43,0,0,0-1.11,2.11c0,.73-.12,1.46-.1,2.18s.13,1.55.21,2.45l.89-.47.4,1,.2,0c-.16-2.37-.32-4.74-.49-7.2M33.38,75.82c.74.74,1.61.55,2.69.35-1-.66-1.81-1.29-2.7-1.8-.74-.42-1.58-.69-2.36-1.05a3.93,3.93,0,0,1-1.08-.65c-.41-.4-.71-.92-1.1-1.35a6.7,6.7,0,0,0-.88-.69l-.18.17a8.35,8.35,0,0,1,.78,1c.89,1.72,2.63,2.36,4.12,3.31a5.14,5.14,0,0,1,.71.69m-1.07,2.7-.09.17a6.27,6.27,0,0,0,1.13.94c.45.24.68.81,1.35.76.32,0,.46.69,1,.52,0,0,.18.41.28.41.95.05,1.89.06,2.84.07a2.86,2.86,0,0,1,.07-.28,15.69,15.69,0,0,0-2.72-1.42,21.74,21.74,0,0,1-3.43-1.1,1.56,1.56,0,0,0-.44-.07m59-3.77a3,3,0,0,0,.95.41c1.3,0,2.6,0,3.9-.06l2.22,0,.07-.18c-.5-.16-1-.35-1.5-.47s-1.15,0-1.62-.48c-.14-.15-.55-.1-.83-.06s-.66.32-.91.24a2,2,0,0,0-2.28.63m-7.52-.55c0-.12,0-.23-.07-.34l-.91,0c-.16,0-.36.07-.46,0a1.42,1.42,0,0,0-1.46,0c-.73.3-1.44.65-2.16,1-.13.06-.21.24-.31.37.13.1.26.29.39.29a6.78,6.78,0,0,0,2-.1c1-.31,2-.79,3-1.2m1.32,18.33a1.2,1.2,0,0,1-1,1,1.14,1.14,0,0,0-.67,1.41l.45-.54,2.35.27c-.32-.35-.5-.53-.55-.6l.73-.32c-.05.4-.11.81-.17,1.24.33.24.81.39.92-.17s.58-.91.09-1.41c0,0,.11-.22.24-.47l-1,.16-.48-.51-.4.63-.58-.68M90,98.92a5.93,5.93,0,0,0,.45.5,1.51,1.51,0,0,0,.39.15c0-.12,0-.23,0-.34-.11-.62-.2-1.24-.35-1.84-.08-.31-.29-.53-.68-.3-.13.08-.33.06-.48.12a8.16,8.16,0,0,0-.84.41s0,.16.07.28l.61-.21c.06.19.12.35.13.37a3.91,3.91,0,0,0-.67.76c0,.07.28.48.41.46a3.87,3.87,0,0,0,1-.36m-29.9-20.7c0-.11,0-.23,0-.34l-5.79.92c.12.17.19.33.24.32,1.88-.24,3.81-.15,5.6-.9M47.78,98.36l-.26.14a7.12,7.12,0,0,1,.32,1.06c0,.38.15.49.52.39.66-.17,1.33-.31,2-.47-.23-.34-.41-.76-1-.32-.06,0-.42-.11-.5-.25a5.89,5.89,0,0,1-.34-1l-.16,0c0,.49.09,1,.13,1.5l-.76-1.07m40.22,1c-.29-.64-.51-1.16-.76-1.71-.2.76-.4,1.48-.6,2.21a1.63,1.63,0,0,0,.11.17L88,99.32M85.24,97.7l.21-.18c-.07-.45,0-1-.55-1.2-.13,0-.38.29-.58.45l.92.93M3.71,82.12a2.44,2.44,0,0,0-.5,2.12,1.52,1.52,0,0,0,.5-2.12M94.5,106.2c.26.86,1.24.92,2.16.12l-2.16-.12M84.05,97.33l-1.66.3a3.86,3.86,0,0,0,1.21.22c.41,0,.82.11,1.22.16l.06-.11-.83-.57M88.49,92l-.15.15a4.28,4.28,0,0,1,.55.66,4.7,4.7,0,0,1,.33.85.68.68,0,0,0,.44-.82c-.12-.77-.75-.61-1.17-.84m-17.11,8.35-.16.21c.07.25.15.5.26.89.23-.44,1,.16.82-.66,0-.21-.6-.29-.92-.44m-40.74-22c0-.37,0-.74,0-1.14l.5-.25a.91.91,0,0,0,0-.17l-.88-.11c0,.6-.56,1.18.37,1.67m46.6,17.3,1.39.38a.78.78,0,0,0-1.39-.38m1-.48.13.15c.26-.21.52-.42.77-.64l-.79-.53c-.06.49-.08.75-.11,1M22,106.46l-.36-.1-.59,1.09.15.2c.24-.06.63-.06.7-.2a2.93,2.93,0,0,0,.1-1M83,94.38c-.42.05-.86,0-.88.12a2.87,2.87,0,0,0,0,.87l.29.07c.15-.3.31-.6.55-1.06m-17.67,5.81H64.22l.24,1,1-.48c0-.1-.07-.26-.12-.5m18.47-4L84,96l-.74-.89-.53.69,1.13.39m7.28,6.51,1.13.14c-.38-.88-.92-1.22-1.57-1.06,0,.37,1,.24.44.92M91,92.05l-.64.3c0-.07-.07-.21-.17-.51l-.45.86.94.53L91,92.05m-2.19,7.66a.91.91,0,0,0,1.25.21c.1,0,0-.53-.08-.79l-1.17.58M5.52,70.54l-.36-.13c-.16.62-.33,1.24-.5,1.86l.17.06.69-1.79m75.13,30.31c.09.4.17.73.24,1.05l.8-.76-1-.29m2.23-9.68a2.83,2.83,0,0,0,0,.29,4.22,4.22,0,0,0,.6.2,4.07,4.07,0,0,0,.61.06c-.11-.2-.17-.54-.32-.58a2.8,2.8,0,0,0-.91,0M47.54,101.93c-.08-.57-.13-.94-.18-1.31l-.2,0a2.14,2.14,0,0,0,0,.28l-.79,0s0,.11,0,.17c.33.22.65.45,1.16.81m-4.43-1.23-.16.12a4.9,4.9,0,0,0,.72.9c.08.07.44-.19.68-.31l-1.24-.71m6.09-3.56a4.75,4.75,0,0,1,.18.53,5.84,5.84,0,0,0,.15.6.46.46,0,0,0,.27.22c.05,0,.17-.07.21-.14.16-.36-.31-1.1-.81-1.21m26.86,10c.17.24.31.47.49.69a1.61,1.61,0,0,0,.33.23c0-.14.11-.29.07-.4a5.1,5.1,0,0,0-.32-.67c-.16,0-.32,0-.47.09s-.11.06-.1.06M89.64,101c.09-.43.09-.44-.48-.87-.07,0-.19,0-.29-.07,0,.15-.08.37,0,.43a5.87,5.87,0,0,0,.78.51"/><path class="cls-1" d="M87.07,105c.28,0,.31.76.76.24,0,.13,0,.32-.09.39a3.72,3.72,0,0,1-.64.38l-.06.27-.85-.9.88-.38"/><path class="cls-1" d="M124.71,94.81c.09.15.25.3.27.47a11.61,11.61,0,0,0,1.29,2.82,11.34,11.34,0,0,1,1.46,4,6.32,6.32,0,0,0,.46,1.48,12.76,12.76,0,0,1,.46,1.57c.23,1.26.38,2.53.63,3.79.2,1,.56,2,.74,3a6.6,6.6,0,0,1-.13,1.52l-.18,2.51-.18,0c-.08-.69-.14-1.37-.23-2.06l-.6-4.28a10.71,10.71,0,0,0-.18-1.62c-.47-1.6-1.06-3.16-1.48-4.77-.13-.47-.78-1,0-1.61.06-.06-.13-.41-.16-.63a6,6,0,0,0-1.07-2.67,15.65,15.65,0,0,1-.55-1.59,2.84,2.84,0,0,1-.54-1.75s-.08-.08-.13-.13l.16-.11"/><path class="cls-1" d="M117.76,106c-.6-.4-1.19-.82-1.79-1.21-.75-.48-1.52-.92-2.27-1.41-1.12-.73-2.23-1.48-3.34-2.23-.27-.18-.52-.47-.8-.51-.6-.08-.77-.61-1.16-.9a.37.37,0,0,1-.05-.3.24.24,0,0,1,.22-.08c.45.2.89.42,1.32.65.18.1.34.33.51.34a4.63,4.63,0,0,1,2.92,1.63,10.84,10.84,0,0,0,1.3.86,19.84,19.84,0,0,1,1.71,1.31c.58.5,1.09,1.07,1.62,1.61Z"/><path class="cls-1" d="M102.56,103.94c0-.55.15-.75.74-.57,2.4.73,4.79,1.51,7.22,2.11a8.91,8.91,0,0,1,4,2l-11.91-3.55"/><path class="cls-1" d="M107.21,86.26c.36-.73.72-.49,1.12-.23l3.43,2.23c.88.57,1.73,1.17,2.65,1.67a12.5,12.5,0,0,1,3,2.51,4.7,4.7,0,0,1,.84,1.11,71.54,71.54,0,0,0-11.05-7.29"/><path class="cls-1" d="M112.09,96.23a1.55,1.55,0,0,1-.51-.2,9.51,9.51,0,0,0-3.62-1.6,5.13,5.13,0,0,0-1.65.11c-.77-.58-2-1-2.23-2.49.44.22.88.45,1.34.65,1.39.6,2.78,1.19,4.18,1.76a1.25,1.25,0,0,0,.47,0l-.42-1.12,1.33.56c0,.2,0,.42,0,.64l-.81,0-.08.21c.45.23.91.44,1.34.7a8.48,8.48,0,0,1,.85.63l-.18.2"/><path class="cls-1" d="M120.29,86c1.18.54,2.43.88,3.28,2,.71,1,1.66,1.71,2.46,2.59A10.46,10.46,0,0,1,127,92l-.14.15c-.71-.57-1.45-1.1-2.13-1.71a14.58,14.58,0,0,0-2-1.92c-.57-.33-1.08-.73-1.63-1.08s-.89-.83-.74-1.37"/><path class="cls-1" d="M111.49,83.06c3.05,1.2,4.4,3.89,6.13,6.19a20.62,20.62,0,0,1-2.3-1.56,20.71,20.71,0,0,1-1.86-2.21l-2-2.42"/><path class="cls-1" d="M101.74,80.72c2.72.87,4.79,2.87,7.38,3.9a1.54,1.54,0,0,1-.54-.15,1.45,1.45,0,0,0-1.82-.22c-.21.13-.69-.07-1-.23-.09,0,.07-.47,0-.68a.68.68,0,0,0-.43-.4,13.57,13.57,0,0,1-1.71-.17c-1-.3-1.48-.54-1.89-2"/><path class="cls-1" d="M113.49,95.64c.38-.63-.28-.84-.54-1.16a8,8,0,0,0-1.19-1l.12-.17a10.52,10.52,0,0,1,1.79,1.11c1.29,1.18,2.52,2.43,3.73,3.7a5.27,5.27,0,0,1,.95,1.61c-1.7-1.26-2.87-3.11-4.86-4"/><path class="cls-1" d="M103.25,95.36a3.82,3.82,0,0,1,1.2.18c1.55.81,3.07,1.67,4.6,2.51,0,.09-.06.19-.09.27a18.69,18.69,0,0,0-3-.78c-1.34-.13-1.93-1.14-2.79-1.86l.06-.32"/><path class="cls-1" d="M115,99.72c1.38,0,5.62,4,6,5.82l-6-5.82"/><path class="cls-1" d="M127.7,117.14a6.56,6.56,0,0,1-1.1-2.94,11.59,11.59,0,0,0-.82-4.79,1.91,1.91,0,0,1,0-.42c.25.11.5.13.56.25a3,3,0,0,1,.56,1.73,8.93,8.93,0,0,0,.44,3.09,7.15,7.15,0,0,1,.41,3.08"/><path class="cls-1" d="M107.35,90.12a12.76,12.76,0,0,1-1.33-.54c-1.17-.63-2.32-1.28-3.46-2-.19-.11-.27-.39-.4-.58.25-.05.55-.22.72-.13,1.23.67,2.45,1.38,3.64,2.12a6.71,6.71,0,0,1,1,.88l-.14.21"/><path class="cls-1" d="M106.13,90.73a2.29,2.29,0,0,1-.37,0,12.13,12.13,0,0,1-2.87-.65c-.93-.47-2.33-.35-2.62-1.9a2.14,2.14,0,0,1,.56.06c.41.17.78.41,1.18.56.56.22,1.16.37,1.72.6.83.34,1.64.73,2.46,1.11l-.06.21"/><path class="cls-1" d="M114.64,99.44c-2.18-1-4-2.74-6.46-3.09-.07-.42-.13-.81-.19-1.19.54,0,5.92,3.36,6.65,4.28"/><path class="cls-1" d="M127.92,121.08q-1.65-3.51-3.29-7l.15-.14c.16.1.41.15.48.29.93,1.85,1.86,3.7,2.75,5.57a4.39,4.39,0,0,1,.19,1.22l-.28.08"/><path class="cls-1" d="M117.37,90.18c1.72.45,4,4.11,4.23,5.81-1.42-1.94-2.78-3.81-4.23-5.81"/><path class="cls-1" d="M119.62,111.44c2,1.61,3.11,3.9,4.3,6.11l-.16.12-4.34-6.1.2-.13"/><path class="cls-1" d="M123,111.68c-.65-.71-1.18-1.28-1.7-1.86,0,0-.11-.11-.11-.17-.11-.86-.78-1.13-1.43-1.48a4.48,4.48,0,0,1-.93-1L119,107l1.45,1.45c.1-.25.17-.4.25-.57.06,0,.16,0,.19,0,.47.58.95,1.16,1.41,1.76a8.54,8.54,0,0,1,.85,1.3c.07.15-.1.43-.17.67"/><path class="cls-1" d="M96.78,98.57c.77-.71,3.68-.41,5,.3a4.19,4.19,0,0,1-2.72.2,6.33,6.33,0,0,1-1-.16c-.42-.1-.84-.23-1.26-.34"/><path class="cls-1" d="M104.48,76.58a6.54,6.54,0,0,1,3.66,1.52,6.87,6.87,0,0,1-2.47-.08c-.44-.18-1.3-.54-1.19-1.44"/><path class="cls-1" d="M106.86,103.05c2.23-.62,3.43.92,4.87,1.88,0,.06,0,.13-.08.19l-4.79-2.07"/><path class="cls-1" d="M127.13,98.19c.09-.2.23-.49.37-.78a7,7,0,0,1,1.7,2.78c.06.15-.06.37-.1.55a2.55,2.55,0,0,1-.38-.43c-.33-.62-.6-1.27-1-1.88-.09-.15-.42-.17-.63-.24"/><path class="cls-1" d="M123.08,115.48a5.07,5.07,0,0,1,2.54,3.6c-.91-1.3-1.73-2.45-2.54-3.6"/><path class="cls-1" d="M123.66,113.69c-1.3-.67-1.84-1.86-2.58-2.87.8,1,2.38,1.14,2.58,2.87"/><path class="cls-1" d="M121.22,96.42c.86,1.43,1.73,2.85,2.59,4.27l-.2.12-2.73-4.19.34-.2"/><path class="cls-1" d="M133.48,115.4c-.19-1.06-.39-2.12-.59-3.21.88.17,1.21,1.75.59,3.21"/><path class="cls-1" d="M118.12,86.11c1.16-.06,1.37,1,2,1.5.06,0,0,.36-.14.5s-.36,0-.43-.11c-.48-.6-.92-1.22-1.41-1.89"/><path class="cls-1" d="M100.77,92.47a16,16,0,0,1,1.64.58c.21.1.32.41.48.62a1.87,1.87,0,0,1-.72.1,2.58,2.58,0,0,1-1.46-1.2s0,0,0-.06a.1.1,0,0,1,0,0"/><path class="cls-1" d="M123.27,102.64c-.57-1.06-1.15-2.11-1.73-3.17l.33-.17c.53,1.07,1.06,2.14,1.58,3.21l-.18.13"/><path class="cls-1" d="M108.31,88.38l2.53,1.28c-.79.24-1.56-.13-2.61-1.11Z"/><path class="cls-1" d="M117.15,81.54l-2-1.58c1.24.1,2.22,1,2,1.58"/><path class="cls-1" d="M112.49,91.82a3,3,0,0,1,2.25,1.92l-2.25-1.92"/><path class="cls-1" d="M119.58,96.11l-1.65-1.44a1.77,1.77,0,0,1,1.8,1.23l-.15.21"/><path class="cls-1" d="M101.15,94.55l-2-.74a3.57,3.57,0,0,1,2.08.52,2.14,2.14,0,0,0-.1.22"/><path class="cls-1" d="M106,101.22c.35.12.71.22,1.06.36a.39.39,0,0,1,.17.32c0,.09-.24.23-.3.2-.37-.17-.72-.38-1.08-.58l.15-.3"/><path class="cls-1" d="M108.17,82.5,109.64,84l-.13.14L108,82.75a2.62,2.62,0,0,0,.22-.25"/><path class="cls-1" d="M119.43,101.09l-.75-.81.14-.17c.3.21.59.44.89.66-.1.1-.19.21-.28.32"/><path class="cls-1" d="M106.17,92.1l1.19.33-.06.2-1.17-.38a.83.83,0,0,0,0-.15"/><path class="cls-1" d="M115.93,108.23l-1.06-.53.1-.2,1.06.55a1.62,1.62,0,0,1-.1.18"/><path class="cls-1" d="M6.84,74.42c.08,1.14-.28,1.44-1.14,1l1.14-1"/></g></g></svg>