<svg xmlns="http://www.w3.org/2000/svg" viewBox="0 0 415.03 35.34"><defs><style>.cls-1{fill:none;stroke:#e5190d;stroke-miterlimit:10;stroke-width:4px;}.cls-2{fill:#e5190d;}.cls-3{fill:#fff;}</style></defs><title>Recurso 5</title><g id="Capa_2" data-name="Capa 2"><g id="Capa_1-2" data-name="Capa 1"><line class="cls-1" x1="26.98" y1="17.67" x2="404.09" y2="17.67"/><path class="cls-2" d="M415,17.67a9.31,9.31,0,1,1-9.31-9.31A9.31,9.31,0,0,1,415,17.67"/><path class="cls-3" d="M33.34,17.67A15.67,15.67,0,1,1,17.67,2,15.68,15.68,0,0,1,33.34,17.67"/><circle class="cls-1" cx="17.67" cy="17.67" r="15.67" transform="translate(-3.59 30.81) rotate(-76.72)"/><path class="cls-2" d="M227.31,17.67A9.32,9.32,0,1,1,218,8.36a9.31,9.31,0,0,1,9.32,9.31"/><path class="cls-2" d="M27,17.67a9.31,9.31,0,1,1-9.31-9.31A9.31,9.31,0,0,1,27,17.67"/></g></g></svg>