<svg xmlns="http://www.w3.org/2000/svg" viewBox="0 0 406.67 35.34"><defs><style>.cls-1{fill:none;stroke:#e5190d;stroke-miterlimit:10;stroke-width:4px;}.cls-2{fill:#e5190d;}.cls-3{fill:#fff;}</style></defs><title>s2</title><g id="Capa_2" data-name="Capa 2"><g id="Capa_1-2" data-name="Capa 1"><line class="cls-1" x1="18.62" y1="17.55" x2="395.73" y2="17.55"/><path class="cls-2" d="M1173.77,25.59a9.31,9.31,0,1,1-9.31-9.31,9.31,9.31,0,0,1,9.31,9.31" transform="translate(-767.1 -8.04)"/><path class="cls-3" d="M992.24,26.31a15.67,15.67,0,1,1-15.67-15.67,15.67,15.67,0,0,1,15.67,15.67" transform="translate(-767.1 -8.04)"/><circle class="cls-1" cx="976.38" cy="25.71" r="15.67" transform="translate(-40.07 962.02) rotate(-76.72)"/><path class="cls-2" d="M986,25.59a9.31,9.31,0,1,1-9.31-9.31A9.31,9.31,0,0,1,986,25.59" transform="translate(-767.1 -8.04)"/><path class="cls-2" d="M785.72,25.59a9.31,9.31,0,1,1-9.31-9.31,9.31,9.31,0,0,1,9.31,9.31" transform="translate(-767.1 -8.04)"/></g></g></svg>