<svg xmlns="http://www.w3.org/2000/svg" viewBox="0 0 414.59 35.34"><defs><style>.cls-1{fill:none;stroke:#e5190d;stroke-miterlimit:10;stroke-width:4px;}.cls-2{fill:#e5190d;}.cls-3{fill:#fff;}</style></defs><title>s3</title><g id="Capa_2" data-name="Capa 2"><g id="Capa_1-2" data-name="Capa 1"><line class="cls-1" x1="18.62" y1="16.66" x2="395.73" y2="16.66"/><path class="cls-2" d="M406.67,16.66a9.31,9.31,0,1,1-9.31-9.31,9.31,9.31,0,0,1,9.31,9.31"/><path class="cls-3" d="M413.06,17.38A15.67,15.67,0,1,1,397.39,1.71a15.66,15.66,0,0,1,15.67,15.67"/><circle class="cls-1" cx="396.92" cy="17.67" r="15.67" transform="translate(288.53 399.91) rotate(-76.72)"/><path class="cls-2" d="M219,16.66a9.32,9.32,0,1,1-9.32-9.31A9.31,9.31,0,0,1,219,16.66"/><path class="cls-2" d="M18.62,16.66A9.31,9.31,0,1,1,9.31,7.35a9.31,9.31,0,0,1,9.31,9.31"/><path class="cls-2" d="M406.5,17.48a9.32,9.32,0,1,1-9.32-9.31,9.31,9.31,0,0,1,9.32,9.31"/></g></g></svg>